<svg width="92" height="119" viewBox="0 0 92 119" fill="none" xmlns="http://www.w3.org/2000/svg">
<path d="M27.5912 19.7275H14.485C8.69429 19.7275 4 24.4218 4 30.2125V103.608C4 109.398 8.69429 114.093 14.485 114.093H77.395C83.1859 114.093 87.88 109.398 87.88 103.608V30.2125C87.88 24.4218 83.1859 19.7275 77.395 19.7275H64.2887" stroke="black" stroke-width="7.86375" stroke-linecap="round"/>
<path d="M24.97 32.3095V22.3487C24.97 20.9011 26.1436 19.7275 27.5913 19.7275C29.0389 19.7275 30.2346 18.5534 30.4826 17.1271C31.2593 12.6591 34.2701 4 45.94 4C57.6098 4 60.6206 12.6591 61.3975 17.1271C61.6455 18.5534 62.8413 19.7275 64.2887 19.7275C65.7362 19.7275 66.91 20.9011 66.91 22.3487V32.3095C66.91 34.0467 65.5019 35.455 63.7645 35.455H28.1155C26.3783 35.455 24.97 34.0467 24.97 32.3095Z" stroke="black" stroke-width="7.86375" stroke-linecap="round"/>
</svg>
