<svg width="22" height="23" viewBox="0 0 22 23" fill="none" xmlns="http://www.w3.org/2000/svg">
<path d="M7.425 22.1152C7.09907 22.1152 6.78843 22.0541 6.49305 21.9319C6.19768 21.8097 5.93796 21.6365 5.71389 21.4125L0.702778 16.4013C0.478704 16.1773 0.305556 15.9175 0.183333 15.6222C0.0611111 15.3268 0 15.0162 0 14.6902V7.54023C0 7.21431 0.0611111 6.90366 0.183333 6.60829C0.305556 6.31292 0.478704 6.0532 0.702778 5.82912L5.71389 0.818012C5.93796 0.593938 6.19768 0.42079 6.49305 0.298568C6.78843 0.176345 7.09907 0.115234 7.425 0.115234H14.575C14.9009 0.115234 15.2116 0.176345 15.5069 0.298568C15.8023 0.42079 16.062 0.593938 16.2861 0.818012L21.2972 5.82912C21.5213 6.0532 21.6944 6.31292 21.8167 6.60829C21.9389 6.90366 22 7.21431 22 7.54023V14.6902C22 15.0162 21.9389 15.3268 21.8167 15.6222C21.6944 15.9175 21.5213 16.1773 21.2972 16.4013L16.2861 21.4125C16.062 21.6365 15.8023 21.8097 15.5069 21.9319C15.2116 22.0541 14.9009 22.1152 14.575 22.1152H7.425ZM11 12.8263L13.6278 15.4541C13.8519 15.6782 14.137 15.7902 14.4833 15.7902C14.8296 15.7902 15.1148 15.6782 15.3389 15.4541C15.563 15.23 15.675 14.9449 15.675 14.5986C15.675 14.2523 15.563 13.9671 15.3389 13.743L12.7111 11.1152L15.3389 8.48746C15.563 8.26338 15.675 7.9782 15.675 7.6319C15.675 7.2856 15.563 7.00042 15.3389 6.77635C15.1148 6.55227 14.8296 6.44023 14.4833 6.44023C14.137 6.44023 13.8519 6.55227 13.6278 6.77635L11 9.40412L8.37222 6.77635C8.14815 6.55227 7.86296 6.44023 7.51667 6.44023C7.17037 6.44023 6.88519 6.55227 6.66111 6.77635C6.43704 7.00042 6.325 7.2856 6.325 7.6319C6.325 7.9782 6.43704 8.26338 6.66111 8.48746L9.28889 11.1152L6.66111 13.743C6.43704 13.9671 6.325 14.2523 6.325 14.5986C6.325 14.9449 6.43704 15.23 6.66111 15.4541C6.88519 15.6782 7.17037 15.7902 7.51667 15.7902C7.86296 15.7902 8.14815 15.6782 8.37222 15.4541L11 12.8263Z" fill="#FF2828"/>
</svg>
