<svg width="92" height="87" viewBox="0 0 92 87" fill="none" xmlns="http://www.w3.org/2000/svg">
<path d="M50.134 79.492H12.388C7.75543 79.492 4 75.7367 4 71.104V12.388C4 7.75543 7.75543 4 12.388 4H79.492C84.1247 4 87.88 7.75543 87.88 12.388V50.134" stroke="black" stroke-width="6.291" stroke-linecap="round"/>
<path d="M4 20.776H87.88" stroke="black" stroke-width="6.291" stroke-linecap="round" stroke-linejoin="round"/>
<path d="M16.582 12.4299L16.6239 12.3833" stroke="black" stroke-width="6.291" stroke-linecap="round" stroke-linejoin="round"/>
<path d="M29.164 12.4299L29.2059 12.3833" stroke="black" stroke-width="6.291" stroke-linecap="round" stroke-linejoin="round"/>
<path d="M41.746 12.4299L41.7879 12.3833" stroke="black" stroke-width="6.291" stroke-linecap="round" stroke-linejoin="round"/>
<path d="M80.0125 75.795C82.2827 73.5189 83.686 70.3784 83.686 66.91C83.686 59.961 78.053 54.328 71.104 54.328C64.155 54.328 58.522 59.961 58.522 66.91C58.522 73.859 64.155 79.492 71.104 79.492C74.5846 79.492 77.7347 78.0786 80.0125 75.795ZM80.0125 75.795L87.88 83.686" stroke="black" stroke-width="6.291" stroke-linecap="round" stroke-linejoin="round"/>
</svg>
