<svg width="92" height="92" viewBox="0 0 92 92" fill="none" xmlns="http://www.w3.org/2000/svg">
<path d="M45.94 58.522C52.889 58.522 58.522 52.8891 58.522 45.94C58.522 38.991 52.889 33.358 45.94 33.358C38.991 33.358 33.358 38.991 33.358 45.94C33.358 52.8891 38.991 58.522 45.94 58.522Z" stroke="black" stroke-width="6.291" stroke-linecap="round" stroke-linejoin="round"/>
<path d="M77.9083 39.2103L73.3046 28.0937L79.492 20.776L71.104 12.388L63.8261 18.6075L52.4734 13.9387L49.8626 4H41.6663L39.0161 14.0703L27.9243 18.7459L20.776 12.388L12.388 20.776L18.4834 28.2784L13.9503 39.4238L4 41.746V50.134L14.0703 52.8832L18.7451 63.9729L12.388 71.104L20.776 79.492L28.2881 73.37L39.217 77.866L41.746 87.88H50.134L52.6693 77.8698L63.7859 73.266C65.6388 74.5905 71.104 79.492 71.104 79.492L79.492 71.104L73.2677 63.762L77.8727 52.642L87.8796 50.0384L87.88 41.746L77.9083 39.2103Z" stroke="black" stroke-width="6.291" stroke-linecap="round" stroke-linejoin="round"/>
</svg>
