<svg width="26" height="26" viewBox="0 0 26 26" fill="none" xmlns="http://www.w3.org/2000/svg">
<path d="M14.0833 3.25L22.75 3.25M22.75 3.25V11.9167M22.75 3.25L11.9167 14.0833" stroke="#006FFD" stroke-width="2" stroke-linecap="round" stroke-linejoin="round"/>
<path d="M9.75008 4.3335V4.3335C7.4843 4.3335 6.35142 4.3335 5.55949 4.91416C5.31269 5.09512 5.09504 5.31277 4.91408 5.55957C4.33342 6.3515 4.33342 7.48438 4.33342 9.75016L4.33342 15.6668C4.33342 18.4953 4.33342 19.9095 5.2121 20.7881C6.09078 21.6668 7.50499 21.6668 10.3334 21.6668L16.2501 21.6668C18.5159 21.6668 19.6487 21.6668 20.4407 21.0862C20.6875 20.9052 20.9051 20.6876 21.0861 20.4408C21.6667 19.6488 21.6667 18.5159 21.6667 16.2502V16.2502" stroke="#006FFD" stroke-width="2" stroke-linecap="round"/>
</svg>
