<svg width="60" height="61" viewBox="0 0 60 61" fill="none" xmlns="http://www.w3.org/2000/svg">
<path d="M39.4659 30.3494V39.4658" stroke="black" stroke-width="4.55824" stroke-linecap="round" stroke-linejoin="round"/>
<path d="M30.3494 3V12.1165" stroke="black" stroke-width="4.55824" stroke-linecap="round" stroke-linejoin="round"/>
<path d="M48.5824 30.3494V39.4658" stroke="black" stroke-width="4.55824" stroke-linecap="round" stroke-linejoin="round"/>
<path d="M30.3494 48.5824H57.6988" stroke="black" stroke-width="4.55824" stroke-linecap="round" stroke-linejoin="round"/>
<path d="M48.5824 57.6989H57.6988" stroke="black" stroke-width="4.55824" stroke-linecap="round" stroke-linejoin="round"/>
<path d="M12.1165 30.3494H21.2329" stroke="black" stroke-width="4.55824" stroke-linecap="round" stroke-linejoin="round"/>
<path d="M12.1165 12.1502L12.1469 12.1165" stroke="black" stroke-width="4.55824" stroke-linecap="round" stroke-linejoin="round"/>
<path d="M30.3494 30.3831L30.3798 30.3494" stroke="black" stroke-width="4.55824" stroke-linecap="round" stroke-linejoin="round"/>
<path d="M3 30.3831L3.03039 30.3494" stroke="black" stroke-width="4.55824" stroke-linecap="round" stroke-linejoin="round"/>
<path d="M30.3494 21.2667L30.3798 21.2329" stroke="black" stroke-width="4.55824" stroke-linecap="round" stroke-linejoin="round"/>
<path d="M30.3494 39.4997L30.3798 39.4659" stroke="black" stroke-width="4.55824" stroke-linecap="round" stroke-linejoin="round"/>
<path d="M39.4659 57.7326L39.4963 57.6989" stroke="black" stroke-width="4.55824" stroke-linecap="round" stroke-linejoin="round"/>
<path d="M30.3494 57.7326L30.3798 57.6989" stroke="black" stroke-width="4.55824" stroke-linecap="round" stroke-linejoin="round"/>
<path d="M57.6988 30.3831L57.7292 30.3494" stroke="black" stroke-width="4.55824" stroke-linecap="round" stroke-linejoin="round"/>
<path d="M57.6988 39.4997L57.7292 39.4659" stroke="black" stroke-width="4.55824" stroke-linecap="round" stroke-linejoin="round"/>
<path d="M48.5824 12.1502L48.6127 12.1165" stroke="black" stroke-width="4.55824" stroke-linecap="round" stroke-linejoin="round"/>
<path d="M21.2329 4.82329V19.4096C21.2329 20.4166 20.4166 21.2329 19.4096 21.2329H4.82329C3.81632 21.2329 3 20.4166 3 19.4096V4.82329C3 3.81632 3.81632 3 4.82329 3H19.4096C20.4166 3 21.2329 3.81632 21.2329 4.82329Z" stroke="black" stroke-width="4.55824" stroke-linecap="round" stroke-linejoin="round"/>
<path d="M57.6988 4.82329V19.4096C57.6988 20.4166 56.8826 21.2329 55.8755 21.2329H41.2892C40.2821 21.2329 39.4659 20.4166 39.4659 19.4096V4.82329C39.4659 3.81632 40.2821 3 41.2892 3H55.8755C56.8826 3 57.6988 3.81632 57.6988 4.82329Z" stroke="black" stroke-width="4.55824" stroke-linecap="round" stroke-linejoin="round"/>
<path d="M12.1165 48.6161L12.1469 48.5824" stroke="black" stroke-width="4.55824" stroke-linecap="round" stroke-linejoin="round"/>
<path d="M21.2329 41.2892V55.8756C21.2329 56.8827 20.4166 57.6989 19.4096 57.6989H4.82329C3.81632 57.6989 3 56.8827 3 55.8756V41.2892C3 40.2822 3.81632 39.4659 4.82329 39.4659H19.4096C20.4166 39.4659 21.2329 40.2822 21.2329 41.2892Z" stroke="black" stroke-width="4.55824" stroke-linecap="round" stroke-linejoin="round"/>
</svg>
