<svg width="60" height="60" viewBox="0 0 60 60" fill="none" xmlns="http://www.w3.org/2000/svg">
<path d="M21.2431 13.9459V19.4188C21.2431 20.4263 20.4263 21.2431 19.4188 21.2431H13.9458C12.9383 21.2431 12.1215 20.4263 12.1215 19.4188V13.9459C12.1215 12.9384 12.9383 12.1216 13.9458 12.1216H19.4188C20.4263 12.1216 21.2431 12.9384 21.2431 13.9459Z" stroke="black" stroke-width="4.56077" stroke-linecap="round" stroke-linejoin="round"/>
<path d="M12.1215 30.3646H21.2431" stroke="black" stroke-width="4.56077" stroke-linecap="round" stroke-linejoin="round"/>
<path d="M39.4861 30.3646V39.4862" stroke="black" stroke-width="4.56077" stroke-linecap="round" stroke-linejoin="round"/>
<path d="M30.3646 48.6077H39.4861" stroke="black" stroke-width="4.56077" stroke-linecap="round" stroke-linejoin="round"/>
<path d="M30.3646 30.3984L30.395 30.3646" stroke="black" stroke-width="4.56077" stroke-linecap="round" stroke-linejoin="round"/>
<path d="M48.6077 30.3984L48.6381 30.3646" stroke="black" stroke-width="4.56077" stroke-linecap="round" stroke-linejoin="round"/>
<path d="M30.3646 39.5198L30.395 39.4861" stroke="black" stroke-width="4.56077" stroke-linecap="round" stroke-linejoin="round"/>
<path d="M48.6077 39.5198L48.6381 39.4861" stroke="black" stroke-width="4.56077" stroke-linecap="round" stroke-linejoin="round"/>
<path d="M48.6077 48.6414L48.6381 48.6077" stroke="black" stroke-width="4.56077" stroke-linecap="round" stroke-linejoin="round"/>
<path d="M30.3646 21.2768L30.395 21.243" stroke="black" stroke-width="4.56077" stroke-linecap="round" stroke-linejoin="round"/>
<path d="M30.3646 12.1554L30.395 12.1216" stroke="black" stroke-width="4.56077" stroke-linecap="round" stroke-linejoin="round"/>
<path d="M21.2431 41.3104V46.7833C21.2431 47.7909 20.4263 48.6076 19.4188 48.6076H13.9458C12.9383 48.6076 12.1215 47.7909 12.1215 46.7833V41.3104C12.1215 40.3028 12.9383 39.4861 13.9458 39.4861H19.4188C20.4263 39.4861 21.2431 40.3028 21.2431 41.3104Z" stroke="black" stroke-width="4.56077" stroke-linecap="round" stroke-linejoin="round"/>
<path d="M48.6077 13.9459V19.4188C48.6077 20.4263 47.791 21.2431 46.7834 21.2431H41.3105C40.3028 21.2431 39.4861 20.4263 39.4861 19.4188V13.9459C39.4861 12.9384 40.3028 12.1216 41.3105 12.1216H46.7834C47.791 12.1216 48.6077 12.9384 48.6077 13.9459Z" stroke="black" stroke-width="4.56077" stroke-linecap="round" stroke-linejoin="round"/>
<path d="M48.6077 3H57.7292V12.1215" stroke="black" stroke-width="4.56077" stroke-linecap="round" stroke-linejoin="round"/>
<path d="M48.6077 57.7292H57.7292V48.6077" stroke="black" stroke-width="4.56077" stroke-linecap="round" stroke-linejoin="round"/>
<path d="M12.1215 3H3V12.1215" stroke="black" stroke-width="4.56077" stroke-linecap="round" stroke-linejoin="round"/>
<path d="M12.1215 57.7292H3V48.6077" stroke="black" stroke-width="4.56077" stroke-linecap="round" stroke-linejoin="round"/>
</svg>
