<svg width="92" height="92" viewBox="0 0 92 92" fill="none" xmlns="http://www.w3.org/2000/svg">
<path d="M34.9032 85.2311V54.3002C34.9032 52.8371 36.089 51.6513 37.552 51.6513H42.7296C43.6302 51.6513 44.4686 51.194 44.9564 50.4368L51.3383 40.5319C51.8262 39.7752 52.6645 39.3179 53.5651 39.3179H69.218C70.1186 39.3179 70.957 39.7752 71.4448 40.5319L77.8268 50.4368C78.3146 51.194 79.1529 51.6513 80.0536 51.6513H85.2312C86.6942 51.6513 87.88 52.8371 87.88 54.3002V85.2311C87.88 86.6942 86.6942 87.88 85.2312 87.88H37.552C36.089 87.88 34.9032 86.6942 34.9032 85.2311Z" stroke="black" stroke-width="6.62211" stroke-linecap="round" stroke-linejoin="round"/>
<path d="M61.3916 74.6358C66.2681 74.6358 70.2211 70.6828 70.2211 65.8063C70.2211 60.9298 66.2681 56.9768 61.3916 56.9768C56.5151 56.9768 52.5621 60.9298 52.5621 65.8063C52.5621 70.6828 56.5151 74.6358 61.3916 74.6358Z" stroke="black" stroke-width="6.62211" stroke-linecap="round" stroke-linejoin="round"/>
<path d="M4 70.2211V83.4653H15.0368" stroke="black" stroke-width="6.62211" stroke-linecap="round" stroke-linejoin="round"/>
<path d="M4 32.6958V54.7695" stroke="black" stroke-width="6.62211" stroke-linecap="round" stroke-linejoin="round"/>
<path d="M4 17.2442V4H17.2442" stroke="black" stroke-width="6.62211" stroke-linecap="round" stroke-linejoin="round"/>
<path d="M32.6958 4H54.7695" stroke="black" stroke-width="6.62211" stroke-linecap="round" stroke-linejoin="round"/>
<path d="M70.2211 4H83.4653V15.0368" stroke="black" stroke-width="6.62211" stroke-linecap="round" stroke-linejoin="round"/>
<path d="M83.4653 34.9031V28.281" stroke="black" stroke-width="6.62211" stroke-linecap="round" stroke-linejoin="round"/>
</svg>
