<svg width="32" height="32" viewBox="0 0 32 32" fill="none" xmlns="http://www.w3.org/2000/svg">
<rect width="32" height="32" rx="16" fill="#006FFD"/>
<mask id="mask0_141_2095" style="mask-type:alpha" maskUnits="userSpaceOnUse" x="8" y="8" width="16" height="16">
<path fill-rule="evenodd" clip-rule="evenodd" d="M14.427 8.33325C11.0642 8.33325 8.33337 11.0376 8.33337 14.3795C8.33337 17.7213 11.0642 20.4257 14.427 20.4257C15.6808 20.4257 16.847 20.0497 17.8163 19.4049L21.7917 23.3475C22.2206 23.7729 22.9149 23.7729 23.3439 23.3475C23.7743 22.9206 23.7743 22.2273 23.3439 21.8004L19.3939 17.883C20.1032 16.8948 20.5207 15.6852 20.5207 14.3795C20.5207 11.0376 17.7899 8.33325 14.427 8.33325ZM10.5312 14.3795C10.5312 12.2497 12.2728 10.5185 14.427 10.5185C16.5813 10.5185 18.3229 12.2497 18.3229 14.3795C18.3229 16.5093 16.5813 18.2405 14.427 18.2405C12.2728 18.2405 10.5312 16.5093 10.5312 14.3795Z" fill="#006FFD"/>
</mask>
<g mask="url(#mask0_141_2095)">
<rect x="8" y="8" width="16" height="16" fill="#FFFBFB"/>
</g>
</svg>
