<svg width="32" height="32" viewBox="0 0 32 32" fill="none" xmlns="http://www.w3.org/2000/svg">
<rect width="32" height="32" rx="16" fill="#006FFD"/>
<mask id="mask0_183_1622" style="mask-type:alpha" maskUnits="userSpaceOnUse" x="8" y="8" width="16" height="16">
<path fill-rule="evenodd" clip-rule="evenodd" d="M14.427 8.3335C11.0642 8.3335 8.33333 11.0379 8.33333 14.3797C8.33333 17.7216 11.0642 20.4259 14.427 20.4259C15.6807 20.4259 16.847 20.0499 17.8163 19.4052L21.7917 23.3478C22.2206 23.7732 22.9149 23.7732 23.3438 23.3478C23.7743 22.9209 23.7743 22.2276 23.3438 21.8007L19.3939 17.8833C20.1032 16.895 20.5207 15.6855 20.5207 14.3797C20.5207 11.0379 17.7898 8.3335 14.427 8.3335ZM10.5312 14.3797C10.5312 12.2499 12.2728 10.5187 14.427 10.5187C16.5812 10.5187 18.3228 12.2499 18.3228 14.3797C18.3228 16.5095 16.5812 18.2407 14.427 18.2407C12.2728 18.2407 10.5312 16.5095 10.5312 14.3797Z" fill="#006FFD"/>
</mask>
<g mask="url(#mask0_183_1622)">
<rect x="8" y="8" width="16" height="16" fill="#FFFBFB"/>
</g>
</svg>
