<svg width="26" height="26" viewBox="0 0 26 26" fill="none" xmlns="http://www.w3.org/2000/svg">
<path d="M14.0833 3.25L22.75 3.25M22.75 3.25V11.9167M22.75 3.25L11.9167 14.0833" stroke="#006FFD" stroke-width="2" stroke-linecap="round" stroke-linejoin="round"/>
<path d="M9.75008 4.33325V4.33325C7.4843 4.33325 6.35142 4.33325 5.55949 4.91392C5.31269 5.09488 5.09504 5.31253 4.91408 5.55932C4.33342 6.35125 4.33342 7.48414 4.33342 9.74992L4.33342 15.6666C4.33342 18.495 4.33342 19.9092 5.2121 20.7879C6.09078 21.6666 7.50499 21.6666 10.3334 21.6666L16.2501 21.6666C18.5159 21.6666 19.6487 21.6666 20.4407 21.0859C20.6875 20.905 20.9051 20.6873 21.0861 20.4405C21.6667 19.6486 21.6667 18.5157 21.6667 16.2499V16.2499" stroke="#006FFD" stroke-width="2" stroke-linecap="round"/>
</svg>
