<svg width="60" height="60" viewBox="0 0 60 60" fill="none" xmlns="http://www.w3.org/2000/svg">
<path d="M31.8048 54.8487H4.72829C3.77378 54.8487 3 54.075 3 53.1204V4.72829C3 3.77378 3.77378 3 4.72829 3H53.1204C54.075 3 54.8487 3.77378 54.8487 4.72829V31.8048" stroke="black" stroke-width="4.32073" stroke-linecap="round" stroke-linejoin="round"/>
<path d="M3 40.4463L23.1634 31.8048L39.0061 39.006" stroke="black" stroke-width="4.32073" stroke-linecap="round" stroke-linejoin="round"/>
<path d="M40.4463 23.1634C37.2645 23.1634 34.6853 20.5841 34.6853 17.4024C34.6853 14.2208 37.2645 11.6415 40.4463 11.6415C43.6281 11.6415 46.2073 14.2208 46.2073 17.4024C46.2073 20.5841 43.6281 23.1634 40.4463 23.1634Z" stroke="black" stroke-width="4.32073" stroke-linecap="round" stroke-linejoin="round"/>
<path d="M40.4463 49.0877H49.0877M49.0877 49.0877H57.7292M49.0877 49.0877V40.4463M49.0877 49.0877V57.7292" stroke="black" stroke-width="4.32073" stroke-linecap="round" stroke-linejoin="round"/>
</svg>
