<svg width="34" height="34" viewBox="0 0 34 34" fill="none" xmlns="http://www.w3.org/2000/svg">
<path d="M13.5385 29.6923H4.30769C3.69565 29.6923 3.10868 29.4492 2.67591 29.0164C2.24313 28.5836 2 27.9967 2 27.3846V4.30769C2 3.69565 2.24313 3.10868 2.67591 2.67591C3.10868 2.24313 3.69565 2 4.30769 2H29.6923C30.3043 2 30.8913 2.24313 31.3241 2.67591C31.7569 3.10868 32 3.69565 32 4.30769V15.8462" stroke="#F08F5F" stroke-width="2.5" stroke-linecap="round" stroke-linejoin="round"/>
<path d="M2 8.92285H32" stroke="#F08F5F" stroke-width="2.5" stroke-linecap="round" stroke-linejoin="round"/>
<path d="M22.7692 28.5385C25.9555 28.5385 28.5385 25.9555 28.5385 22.7692C28.5385 19.583 25.9555 17 22.7692 17C19.583 17 17 19.583 17 22.7692C17 25.9555 19.583 28.5385 22.7692 28.5385Z" stroke="#F08F5F" stroke-width="2.5" stroke-linecap="round" stroke-linejoin="round"/>
<path d="M26.854 26.854L32.0002 32.0002" stroke="#F08F5F" stroke-width="2.5" stroke-linecap="round" stroke-linejoin="round"/>
</svg>
